<?xml version="1.0" encoding="utf-8"?>
<!-- Generator: Adobe Illustrator 18.1.0, SVG Export Plug-In . SVG Version: 6.00 Build 0)  -->
<svg version="1.1" id="Layer_1" xmlns="http://www.w3.org/2000/svg" xmlns:xlink="http://www.w3.org/1999/xlink" x="0px" y="0px"
	 viewBox="-466 264.2 26.1 33.8" enable-background="new -466 264.2 26.1 33.8" xml:space="preserve">
<g>
	<path fill="#D22856" d="M-453,264.2l-13,1.5v24.5l13,7.8v0l13-7.9v-24.4L-453,264.2z M-442,288.9l-11,6.6v-7.4l-6.4-2.9v0l6.4-2.8
		v0h0v0l6.4,2.8v0l0,0v-1.2l-6.4-2.8l0,0l0,0v0h0v0l-6.4,2.8v-1.2l0,0l5.8-2.6l-1.4-0.6l-4.5,2v-1.2l3.1-1.4l-1.4-0.6l-1.7,0.7v-1.2
		l0.3-0.1l-3.7-1.7l9.8-4.2v-5.6l11,1.3V288.9z"/>
	<polygon fill="#D22856" points="-446.6,281.6 -451,279.6 -452.4,280.2 -446.6,282.8 	"/>
	<polygon fill="#D22856" points="-446.6,279.1 -448.3,278.4 -449.7,279 -446.6,280.4 	"/>
</g>
</svg>
