<?xml version="1.0" encoding="utf-8"?>
<!-- Generator: Adobe Illustrator 18.1.0, SVG Export Plug-In . SVG Version: 6.00 Build 0)  -->
<svg version="1.1" id="Layer_1" xmlns="http://www.w3.org/2000/svg" xmlns:xlink="http://www.w3.org/1999/xlink" x="0px" y="0px"
	 viewBox="-442 270 74.3 23" enable-background="new -442 270 74.3 23" xml:space="preserve">
<g>
	<path fill="#FFFFFF" d="M-442,271.4c0-0.7,0.6-1.3,1.3-1.3h7.2c5.1,0,8.5,2.7,8.5,7.2v0.1c0,4.9-4.1,7.4-8.9,7.4h-5.5v6.9
		c0,0.7-0.6,1.3-1.3,1.3c-0.7,0-1.3-0.6-1.3-1.3V271.4z M-433.8,282.5c3.8,0,6.2-2,6.2-5v-0.1c0-3.2-2.4-4.9-6.1-4.9h-5.7v10H-433.8
		z"/>
	<path fill="#FFFFFF" d="M-419.6,271.3c0-0.7,0.6-1.3,1.3-1.3c0.7,0,1.3,0.6,1.3,1.3v20.4c0,0.7-0.6,1.3-1.3,1.3
		c-0.7,0-1.3-0.6-1.3-1.3L-419.6,271.3L-419.6,271.3z"/>
	<path fill="#FFFFFF" d="M-410.9,271.3c0-0.7,0.6-1.3,1.3-1.3h0.4c0.6,0,0.9,0.3,1.3,0.7l13.8,17.6v-17.1c0-0.7,0.6-1.3,1.3-1.3
		c0.7,0,1.2,0.6,1.2,1.3v20.5c0,0.7-0.5,1.2-1.2,1.2h-0.1c-0.6,0-0.9-0.3-1.3-0.8l-14.1-18v17.6c0,0.7-0.6,1.3-1.3,1.3
		c-0.7,0-1.2-0.6-1.2-1.3C-410.9,291.7-410.9,271.3-410.9,271.3z"/>
	<path fill="#FFFFFF" d="M-386,271.3c0-0.7,0.6-1.3,1.3-1.3c0.7,0,1.3,0.6,1.3,1.3v12.4l13-13.3c0.3-0.3,0.6-0.5,1-0.5
		c0.7,0,1.2,0.6,1.2,1.3c0,0.4-0.2,0.6-0.4,0.9l-8.1,8l8.6,10.6c0.2,0.3,0.4,0.6,0.4,0.9c0,0.7-0.6,1.3-1.3,1.3
		c-0.5,0-0.8-0.3-1-0.6l-8.5-10.5l-4.9,4.9v4.9c0,0.7-0.6,1.3-1.3,1.3c-0.7,0-1.3-0.6-1.3-1.3L-386,271.3L-386,271.3z"/>
</g>
</svg>
