<?xml version="1.0" encoding="utf-8"?>
<!-- Generator: Adobe Illustrator 18.1.0, SVG Export Plug-In . SVG Version: 6.00 Build 0)  -->
<svg version="1.1" id="Layer_1" xmlns="http://www.w3.org/2000/svg" xmlns:xlink="http://www.w3.org/1999/xlink" x="0px" y="0px"
	 viewBox="-467 269.1 23.9 23.9" enable-background="new -467 269.1 23.9 23.9" xml:space="preserve">
<path fill="#FFFFFF" d="M-451.9,281.1l8.6-8.6c0.3-0.3,0.3-0.8,0-1.1l-2.1-2.1c-0.1-0.1-0.3-0.2-0.5-0.2c-0.2,0-0.4,0.1-0.5,0.2
	l-8.6,8.6l-8.6-8.6c-0.3-0.3-0.8-0.3-1.1,0l-2.1,2.1c-0.3,0.3-0.3,0.8,0,1.1l8.6,8.6l-8.6,8.6c-0.3,0.3-0.3,0.8,0,1.1l2.1,2.1
	c0.1,0.1,0.3,0.2,0.5,0.2c0.2,0,0.4-0.1,0.5-0.2l8.6-8.6l8.6,8.6c0.1,0.1,0.3,0.2,0.5,0.2c0.2,0,0.4-0.1,0.5-0.2l2.1-2.1
	c0.3-0.3,0.3-0.8,0-1.1L-451.9,281.1z"/>
</svg>
