<?xml version="1.0" encoding="utf-8"?>
<!-- Generator: Adobe Illustrator 18.1.0, SVG Export Plug-In . SVG Version: 6.00 Build 0)  -->
<svg version="1.1" id="Layer_1" xmlns="http://www.w3.org/2000/svg" xmlns:xlink="http://www.w3.org/1999/xlink" x="0px" y="0px"
	 viewBox="-454 269 49.9 24" enable-background="new -454 269 49.9 24" xml:space="preserve">
<g id="miu">
	<g id="editor_list_view_hambuger_menu_glyph">
		<g>
			<path id="path-1" fill="#FFFFFF" d="M-452.9,269c-0.6,0-1.1,0.4-1.1,1v2c0,0.6,0.5,1,1.1,1h47.7c0.6,0,1.1-0.4,1.1-1v-2
				c0-0.6-0.5-1-1.1-1H-452.9z M-452.9,279c-0.6,0-1.1,0.4-1.1,1v2c0,0.6,0.5,1,1.1,1h47.7c0.6,0,1.1-0.4,1.1-1v-2
				c0-0.6-0.5-1-1.1-1H-452.9z M-452.9,289c-0.6,0-1.1,0.4-1.1,1v2c0,0.6,0.5,1,1.1,1h47.7c0.6,0,1.1-0.4,1.1-1v-2
				c0-0.6-0.5-1-1.1-1C-405.2,289-452.9,289-452.9,289z"/>
		</g>
		<g>
			<path id="path-1_1_" fill="#FFFFFF" d="M-452.9,269c-0.6,0-1.1,0.4-1.1,1v2c0,0.6,0.5,1,1.1,1h47.7c0.6,0,1.1-0.4,1.1-1v-2
				c0-0.6-0.5-1-1.1-1H-452.9z M-452.9,279c-0.6,0-1.1,0.4-1.1,1v2c0,0.6,0.5,1,1.1,1h47.7c0.6,0,1.1-0.4,1.1-1v-2
				c0-0.6-0.5-1-1.1-1H-452.9z M-452.9,289c-0.6,0-1.1,0.4-1.1,1v2c0,0.6,0.5,1,1.1,1h47.7c0.6,0,1.1-0.4,1.1-1v-2
				c0-0.6-0.5-1-1.1-1C-405.2,289-452.9,289-452.9,289z"/>
		</g>
	</g>
</g>
</svg>
