<?xml version="1.0" encoding="utf-8"?>
<!-- Generator: Adobe Illustrator 18.1.0, SVG Export Plug-In . SVG Version: 6.00 Build 0)  -->
<svg version="1.1" id="Layer_1" xmlns="http://www.w3.org/2000/svg" xmlns:xlink="http://www.w3.org/1999/xlink" x="0px" y="0px"
	 viewBox="-440 249.2 78.7 63.8" enable-background="new -440 249.2 78.7 63.8" xml:space="preserve">
<g>
	<path fill="#FFFFFF" d="M-367.6,288.8c-2.8-2.4-6.6-3.6-11.5-3.6h-5.7c0.5-4.1,1.3-7.4,2.4-9.9c1.1-2.6,2.9-5,5.1-7.5
		c2.4-2.5,4.7-4.5,7-6.1c2.3-1.5,5.3-3.4,9-5.5l-4.3-7.1c-2.4,1.5-5.5,3.4-9.1,5.8c-3.6,2.4-7,5.2-10.3,8.6c-3.2,3.3-5.8,7.1-8,11.3
		c-2.2,4.2-3.3,8.9-3.3,14c0,7.2,1.5,13.1,4.4,17.5c2.9,4.4,7.8,6.7,14.5,6.7c4.3,0,7.7-1.4,10.2-4.3c2.5-2.9,3.7-6,3.7-9.3
		C-363.5,294.8-364.9,291.2-367.6,288.8z"/>
	<path fill="#FFFFFF" d="M-421,267.8c2.4-2.5,4.7-4.5,7-6.1c2.3-1.5,5.3-3.4,9-5.5l-4.3-7.1c-2.4,1.5-5.5,3.4-9.1,5.8
		c-3.6,2.4-7.1,5.2-10.3,8.6c-3.1,3.3-5.8,7.1-8,11.3c-2.2,4.2-3.3,8.9-3.3,14c0,7.2,1.5,13.1,4.4,17.5c2.9,4.4,7.8,6.7,14.5,6.7
		c4.3,0,7.7-1.4,10.2-4.3c2.5-2.9,3.7-6,3.7-9.3c0-4.6-1.4-8.2-4.2-10.6c-2.8-2.4-6.6-3.6-11.5-3.6h-5.7c0.5-4.1,1.3-7.4,2.5-10
		C-424.9,272.6-423.2,270.2-421,267.8z"/>
</g>
</svg>
